<?xml version="1.0" encoding="UTF-8" standalone="no"?>
<!DOCTYPE svg PUBLIC "-//W3C//DTD SVG 1.1//EN" "http://www.w3.org/Graphics/SVG/1.1/DTD/svg11.dtd">
<svg width="100%" height="100%" viewBox="0 0 1920 1861" version="1.1" xmlns="http://www.w3.org/2000/svg" xmlns:xlink="http://www.w3.org/1999/xlink" xml:space="preserve" xmlns:serif="http://www.serif.com/" style="fill-rule:evenodd;clip-rule:evenodd;stroke-linecap:round;stroke-linejoin:round;stroke-miterlimit:1.5;">
    <g transform="matrix(1,0,0,1,-1354,0)">
        <g transform="matrix(0.704936,0,0,1.21465,1622.22,204.821)">
            <g transform="matrix(0.704732,0.38358,-0.704732,0.38358,891.897,-99.5788)">
                <path d="M667.02,824.342C667.02,824.342 664.219,844.167 664.219,852.663C664.219,854.213 665.474,855.471 667.02,855.471C668.567,855.471 669.822,854.213 669.822,852.663C669.822,844.167 667.02,824.342 667.02,824.342Z" style="fill:rgb(116,209,234);"/>
            </g>
            <g transform="matrix(-0.704732,-0.38358,0.704732,-0.38358,626.68,1068.04)">
                <path d="M667.02,824.342C667.02,824.342 664.219,844.167 664.219,852.663C664.219,854.213 665.474,855.471 667.02,855.471C668.567,855.471 669.822,854.213 669.822,852.663C669.822,844.167 667.02,824.342 667.02,824.342Z" style="fill:rgb(116,209,234);"/>
            </g>
            <g transform="matrix(-0.704732,0.38358,-0.704732,-0.38358,1832.04,556.332)">
                <path d="M667.02,824.342C667.02,824.342 664.219,844.167 664.219,852.663C664.219,854.213 665.474,855.471 667.02,855.471C668.567,855.471 669.822,854.213 669.822,852.663C669.822,844.167 667.02,824.342 667.02,824.342Z" style="fill:rgb(116,209,234);"/>
            </g>
            <g transform="matrix(0.704732,-0.38358,0.704732,0.38358,-313.317,412.216)">
                <path d="M667.02,824.342C667.02,824.342 664.219,844.167 664.219,852.663C664.219,854.213 665.474,855.471 667.02,855.471C668.567,855.471 669.822,854.213 669.822,852.663C669.822,844.167 667.02,824.342 667.02,824.342Z" style="fill:rgb(116,209,234);"/>
            </g>
            <g transform="matrix(1.93597,0,0,0.542464,-597.73,46.8821)">
                <path d="M702.196,877.884L699.705,877.884L700.328,809.089L701.573,809.089L702.196,877.884Z" style="fill:rgb(116,209,234);"/>
            </g>
        </g>
        <g transform="matrix(0.381592,0,0,0.677636,2467.25,521.681)">
            <g transform="matrix(0.704732,0.38358,-0.704732,0.38358,891.897,-99.5788)">
                <path d="M667.02,824.342C667.02,824.342 664.219,844.17 664.219,852.668C664.219,854.215 665.474,855.471 667.02,855.471C668.567,855.471 669.822,854.215 669.822,852.668C669.822,844.17 667.02,824.342 667.02,824.342Z" style="fill:rgb(116,209,234);"/>
            </g>
            <g transform="matrix(-0.704732,-0.38358,0.704732,-0.38358,626.68,1068.04)">
                <path d="M667.02,824.342C667.02,824.342 664.219,844.17 664.219,852.668C664.219,854.215 665.474,855.471 667.02,855.471C668.567,855.471 669.822,854.215 669.822,852.668C669.822,844.17 667.02,824.342 667.02,824.342Z" style="fill:rgb(116,209,234);"/>
            </g>
            <g transform="matrix(-0.704732,0.38358,-0.704732,-0.38358,1832.04,556.332)">
                <path d="M667.02,824.342C667.02,824.342 664.219,844.17 664.219,852.668C664.219,854.215 665.474,855.471 667.02,855.471C668.567,855.471 669.822,854.215 669.822,852.668C669.822,844.17 667.02,824.342 667.02,824.342Z" style="fill:rgb(116,209,234);"/>
            </g>
            <g transform="matrix(0.704732,-0.38358,0.704732,0.38358,-313.317,412.216)">
                <path d="M667.02,824.342C667.02,824.342 664.219,844.17 664.219,852.668C664.219,854.215 665.474,855.471 667.02,855.471C668.567,855.471 669.822,854.215 669.822,852.668C669.822,844.17 667.02,824.342 667.02,824.342Z" style="fill:rgb(116,209,234);"/>
            </g>
            <g transform="matrix(1.93597,0,0,0.542464,-597.73,46.8821)">
                <path d="M702.196,877.884L699.705,877.884L700.328,809.089L701.573,809.089L702.196,877.884Z" style="fill:rgb(116,209,234);"/>
            </g>
        </g>
        <g id="montanha" transform="matrix(1,0,0,1,1354,0)">
            <g transform="matrix(0.768918,0,0,1.17987,102.39,-279.693)">
                <path d="M426.679,961.598L758.015,1370.28L95.343,1370.28L426.679,961.598Z" style="fill:rgb(213,235,238);"/>
            </g>
            <g transform="matrix(1.15615,0,0,1.09279,711.24,-239.932)">
                <path d="M426.679,961.598L758.015,1370.28L95.343,1370.28L426.679,961.598Z" style="fill:rgb(213,235,238);"/>
            </g>
            <g transform="matrix(0.83211,0,0,0.772955,1059.66,111.596)">
                <path d="M426.679,961.598L758.015,1370.28L95.343,1370.28L426.679,961.598Z" style="fill:rgb(213,235,238);"/>
            </g>
            <g transform="matrix(1.20842,0,0,1.04866,308.002,-206.17)">
                <path d="M426.679,961.598L758.015,1370.28L95.343,1370.28L426.679,961.598Z" style="fill:rgb(213,235,238);"/>
            </g>
        </g>
        <g transform="matrix(0.558085,0,0,0.961617,1722.01,378.48)">
            <g transform="matrix(0.704732,0.38358,-0.704732,0.38358,891.897,-99.5788)">
                <path d="M667.02,824.342C667.02,824.342 664.219,844.167 664.219,852.663C664.219,854.213 665.474,855.471 667.02,855.471C668.567,855.471 669.822,854.213 669.822,852.663C669.822,844.167 667.02,824.342 667.02,824.342Z" style="fill:rgb(116,209,234);"/>
            </g>
            <g transform="matrix(-0.704732,-0.38358,0.704732,-0.38358,626.68,1068.04)">
                <path d="M667.02,824.342C667.02,824.342 664.219,844.167 664.219,852.663C664.219,854.213 665.474,855.471 667.02,855.471C668.567,855.471 669.822,854.213 669.822,852.663C669.822,844.167 667.02,824.342 667.02,824.342Z" style="fill:rgb(116,209,234);"/>
            </g>
            <g transform="matrix(-0.704732,0.38358,-0.704732,-0.38358,1832.04,556.332)">
                <path d="M667.02,824.342C667.02,824.342 664.219,844.167 664.219,852.663C664.219,854.213 665.474,855.471 667.02,855.471C668.567,855.471 669.822,854.213 669.822,852.663C669.822,844.167 667.02,824.342 667.02,824.342Z" style="fill:rgb(116,209,234);"/>
            </g>
            <g transform="matrix(0.704732,-0.38358,0.704732,0.38358,-313.317,412.216)">
                <path d="M667.02,824.342C667.02,824.342 664.219,844.167 664.219,852.663C664.219,854.213 665.474,855.471 667.02,855.471C668.567,855.471 669.822,854.213 669.822,852.663C669.822,844.167 667.02,824.342 667.02,824.342Z" style="fill:rgb(116,209,234);"/>
            </g>
            <g transform="matrix(1.93597,0,0,0.542464,-597.73,46.8821)">
                <path d="M702.196,877.884L699.705,877.884L700.328,809.089L701.573,809.089L702.196,877.884Z" style="fill:rgb(116,209,234);"/>
            </g>
        </g>
        <g transform="matrix(0.482001,0,0,0.855945,2414.44,444.511)">
            <g transform="matrix(0.704732,0.38358,-0.704732,0.38358,891.897,-99.5788)">
                <path d="M667.02,824.342C667.02,824.342 664.219,844.17 664.219,852.668C664.219,854.215 665.474,855.471 667.02,855.471C668.567,855.471 669.822,854.215 669.822,852.668C669.822,844.17 667.02,824.342 667.02,824.342Z" style="fill:rgb(116,209,234);"/>
            </g>
            <g transform="matrix(-0.704732,-0.38358,0.704732,-0.38358,626.68,1068.04)">
                <path d="M667.02,824.342C667.02,824.342 664.219,844.17 664.219,852.668C664.219,854.215 665.474,855.471 667.02,855.471C668.567,855.471 669.822,854.215 669.822,852.668C669.822,844.17 667.02,824.342 667.02,824.342Z" style="fill:rgb(116,209,234);"/>
            </g>
            <g transform="matrix(-0.704732,0.38358,-0.704732,-0.38358,1832.04,556.332)">
                <path d="M667.02,824.342C667.02,824.342 664.219,844.17 664.219,852.668C664.219,854.215 665.474,855.471 667.02,855.471C668.567,855.471 669.822,854.215 669.822,852.668C669.822,844.17 667.02,824.342 667.02,824.342Z" style="fill:rgb(116,209,234);"/>
            </g>
            <g transform="matrix(0.704732,-0.38358,0.704732,0.38358,-313.317,412.216)">
                <path d="M667.02,824.342C667.02,824.342 664.219,844.17 664.219,852.668C664.219,854.215 665.474,855.471 667.02,855.471C668.567,855.471 669.822,854.215 669.822,852.668C669.822,844.17 667.02,824.342 667.02,824.342Z" style="fill:rgb(116,209,234);"/>
            </g>
            <g transform="matrix(1.93597,0,0,0.542464,-597.73,46.8821)">
                <path d="M702.196,877.884L699.705,877.884L700.328,809.089L701.573,809.089L702.196,877.884Z" style="fill:rgb(116,209,234);"/>
            </g>
        </g>
        <g transform="matrix(0.683752,0,0,1.21422,2209.71,283.436)">
            <g transform="matrix(0.704732,0.38358,-0.704732,0.38358,891.897,-99.5788)">
                <path d="M667.02,824.342C667.02,824.342 664.219,844.17 664.219,852.668C664.219,854.215 665.474,855.471 667.02,855.471C668.567,855.471 669.822,854.215 669.822,852.668C669.822,844.17 667.02,824.342 667.02,824.342Z" style="fill:rgb(116,209,234);"/>
            </g>
            <g transform="matrix(-0.704732,-0.38358,0.704732,-0.38358,626.68,1068.04)">
                <path d="M667.02,824.342C667.02,824.342 664.219,844.17 664.219,852.668C664.219,854.215 665.474,855.471 667.02,855.471C668.567,855.471 669.822,854.215 669.822,852.668C669.822,844.17 667.02,824.342 667.02,824.342Z" style="fill:rgb(116,209,234);"/>
            </g>
            <g transform="matrix(-0.704732,0.38358,-0.704732,-0.38358,1832.04,556.332)">
                <path d="M667.02,824.342C667.02,824.342 664.219,844.17 664.219,852.668C664.219,854.215 665.474,855.471 667.02,855.471C668.567,855.471 669.822,854.215 669.822,852.668C669.822,844.17 667.02,824.342 667.02,824.342Z" style="fill:rgb(116,209,234);"/>
            </g>
            <g transform="matrix(0.704732,-0.38358,0.704732,0.38358,-313.317,412.216)">
                <path d="M667.02,824.342C667.02,824.342 664.219,844.17 664.219,852.668C664.219,854.215 665.474,855.471 667.02,855.471C668.567,855.471 669.822,854.215 669.822,852.668C669.822,844.17 667.02,824.342 667.02,824.342Z" style="fill:rgb(116,209,234);"/>
            </g>
            <g transform="matrix(1.93597,0,0,0.542464,-597.73,46.8821)">
                <path d="M702.196,877.884L699.705,877.884L700.328,809.089L701.573,809.089L702.196,877.884Z" style="fill:rgb(116,209,234);"/>
            </g>
        </g>
        <g transform="matrix(1,0,0,1.72307,1354,0)">
            <g transform="matrix(0.704732,0.38358,-0.704732,0.38358,891.897,-99.5788)">
                <path d="M667.02,824.342C667.02,824.342 664.219,844.167 664.219,852.663C664.219,854.213 665.474,855.471 667.02,855.471C668.567,855.471 669.822,854.213 669.822,852.663C669.822,844.167 667.02,824.342 667.02,824.342Z" style="fill:rgb(116,209,234);"/>
            </g>
            <g transform="matrix(-0.704732,-0.38358,0.704732,-0.38358,626.68,1068.04)">
                <path d="M667.02,824.342C667.02,824.342 664.219,844.167 664.219,852.663C664.219,854.213 665.474,855.471 667.02,855.471C668.567,855.471 669.822,854.213 669.822,852.663C669.822,844.167 667.02,824.342 667.02,824.342Z" style="fill:rgb(116,209,234);"/>
            </g>
            <g transform="matrix(-0.704732,0.38358,-0.704732,-0.38358,1832.04,556.332)">
                <path d="M667.02,824.342C667.02,824.342 664.219,844.167 664.219,852.663C664.219,854.213 665.474,855.471 667.02,855.471C668.567,855.471 669.822,854.213 669.822,852.663C669.822,844.167 667.02,824.342 667.02,824.342Z" style="fill:rgb(116,209,234);"/>
            </g>
            <g transform="matrix(0.704732,-0.38358,0.704732,0.38358,-313.317,412.216)">
                <path d="M667.02,824.342C667.02,824.342 664.219,844.167 664.219,852.663C664.219,854.213 665.474,855.471 667.02,855.471C668.567,855.471 669.822,854.213 669.822,852.663C669.822,844.167 667.02,824.342 667.02,824.342Z" style="fill:rgb(116,209,234);"/>
            </g>
            <g transform="matrix(1.93597,0,0,0.542464,-597.73,46.8821)">
                <path d="M702.196,877.884L699.705,877.884L700.328,809.089L701.573,809.089L702.196,877.884Z" style="fill:rgb(116,209,234);"/>
            </g>
        </g>
        <g id="Artboard1" transform="matrix(1,0,0,1.72307,1354,0)">
            <rect x="0" y="0" width="1920" height="1080" style="fill:none;"/>
            <g id="buildings">
                <g id="Building" transform="matrix(0.689352,0,0,0.689352,-81.3055,367.762)">
                    <g transform="matrix(0.996984,0,0,0.580361,237.771,30.9285)">
                        <rect x="320.475" y="296.489" width="181.419" height="540.397" style="fill:rgb(116,209,234);"/>
                    </g>
                    <g transform="matrix(0.859375,0,0,0.580361,91.4372,27.405)">
                        <rect x="560.959" y="341.825" width="29.007" height="68.807" style="fill:rgb(175,234,220);"/>
                    </g>
                    <g transform="matrix(0.859375,0,0,0.580361,91.4372,129.358)">
                        <rect x="560.959" y="341.825" width="29.007" height="68.807" style="fill:rgb(175,234,220);"/>
                    </g>
                    <g transform="matrix(0.859375,0,0,0.580361,91.4372,78.3815)">
                        <rect x="560.959" y="341.825" width="29.007" height="68.807" style="fill:rgb(175,234,220);"/>
                    </g>
                    <g transform="matrix(0.859375,0,0,0.580361,91.4372,180.334)">
                        <rect x="560.959" y="341.825" width="29.007" height="68.807" style="fill:rgb(175,234,220);"/>
                    </g>
                    <g transform="matrix(0.859375,0,0,0.580361,132.597,27.405)">
                        <rect x="560.959" y="341.825" width="29.007" height="68.807" style="fill:rgb(175,234,220);"/>
                    </g>
                    <g transform="matrix(0.859375,0,0,0.580361,132.597,129.358)">
                        <rect x="560.959" y="341.825" width="29.007" height="68.807" style="fill:rgb(175,234,220);"/>
                    </g>
                    <g transform="matrix(0.859375,0,0,0.580361,132.597,78.3815)">
                        <rect x="560.959" y="341.825" width="29.007" height="68.807" style="fill:rgb(175,234,220);"/>
                    </g>
                    <g transform="matrix(0.859375,0,0,0.580361,132.597,180.334)">
                        <rect x="560.959" y="341.825" width="29.007" height="68.807" style="fill:rgb(175,234,220);"/>
                    </g>
                    <g transform="matrix(0.859375,0,0,0.580361,173.757,27.405)">
                        <rect x="560.959" y="341.825" width="29.007" height="68.807" style="fill:rgb(175,234,220);"/>
                    </g>
                    <g transform="matrix(0.859375,0,0,0.580361,173.757,129.358)">
                        <rect x="560.959" y="341.825" width="29.007" height="68.807" style="fill:rgb(175,234,220);"/>
                    </g>
                    <g transform="matrix(0.859375,0,0,0.580361,173.757,78.3815)">
                        <rect x="560.959" y="341.825" width="29.007" height="68.807" style="fill:rgb(175,234,220);"/>
                    </g>
                    <g transform="matrix(0.859375,0,0,0.580361,173.757,180.334)">
                        <rect x="560.959" y="341.825" width="29.007" height="68.807" style="fill:rgb(175,234,220);"/>
                    </g>
                    <g transform="matrix(0.859375,0,0,0.580361,214.917,27.405)">
                        <rect x="560.959" y="341.825" width="29.007" height="68.807" style="fill:rgb(175,234,220);"/>
                    </g>
                    <g transform="matrix(0.859375,0,0,0.580361,214.917,129.358)">
                        <rect x="560.959" y="341.825" width="29.007" height="68.807" style="fill:rgb(175,234,220);"/>
                    </g>
                    <g transform="matrix(0.859375,0,0,0.580361,214.917,78.3815)">
                        <rect x="560.959" y="341.825" width="29.007" height="68.807" style="fill:rgb(175,234,220);"/>
                    </g>
                    <g transform="matrix(0.859375,0,0,0.580361,214.917,180.334)">
                        <rect x="560.959" y="341.825" width="29.007" height="68.807" style="fill:rgb(175,234,220);"/>
                    </g>
                </g>
                <g id="building">
                    <g id="Building1" serif:id="Building" transform="matrix(0.689352,0,0,0.689352,467.297,373.666)">
                        <g transform="matrix(0.996984,0,0,0.580361,237.771,30.9285)">
                            <rect x="320.475" y="296.489" width="181.419" height="540.397" style="fill:rgb(116,209,234);"/>
                        </g>
                        <g transform="matrix(0.859375,0,0,0.580361,91.4372,27.405)">
                            <rect x="560.959" y="341.825" width="29.007" height="68.807" style="fill:rgb(175,234,220);"/>
                        </g>
                        <g transform="matrix(0.859375,0,0,0.580361,91.4372,129.358)">
                            <rect x="560.959" y="341.825" width="29.007" height="68.807" style="fill:rgb(175,234,220);"/>
                        </g>
                        <g transform="matrix(0.859375,0,0,0.580361,91.4372,78.3815)">
                            <rect x="560.959" y="341.825" width="29.007" height="68.807" style="fill:rgb(175,234,220);"/>
                        </g>
                        <g transform="matrix(0.859375,0,0,0.580361,91.4372,180.334)">
                            <rect x="560.959" y="341.825" width="29.007" height="68.807" style="fill:rgb(175,234,220);"/>
                        </g>
                        <g transform="matrix(0.859375,0,0,0.580361,132.597,27.405)">
                            <rect x="560.959" y="341.825" width="29.007" height="68.807" style="fill:rgb(175,234,220);"/>
                        </g>
                        <g transform="matrix(0.859375,0,0,0.580361,132.597,129.358)">
                            <rect x="560.959" y="341.825" width="29.007" height="68.807" style="fill:rgb(175,234,220);"/>
                        </g>
                        <g transform="matrix(0.859375,0,0,0.580361,132.597,78.3815)">
                            <rect x="560.959" y="341.825" width="29.007" height="68.807" style="fill:rgb(175,234,220);"/>
                        </g>
                        <g transform="matrix(0.859375,0,0,0.580361,132.597,180.334)">
                            <rect x="560.959" y="341.825" width="29.007" height="68.807" style="fill:rgb(175,234,220);"/>
                        </g>
                        <g transform="matrix(0.859375,0,0,0.580361,173.757,27.405)">
                            <rect x="560.959" y="341.825" width="29.007" height="68.807" style="fill:rgb(175,234,220);"/>
                        </g>
                        <g transform="matrix(0.859375,0,0,0.580361,173.757,129.358)">
                            <rect x="560.959" y="341.825" width="29.007" height="68.807" style="fill:rgb(175,234,220);"/>
                        </g>
                        <g transform="matrix(0.859375,0,0,0.580361,173.757,78.3815)">
                            <rect x="560.959" y="341.825" width="29.007" height="68.807" style="fill:rgb(175,234,220);"/>
                        </g>
                        <g transform="matrix(0.859375,0,0,0.580361,173.757,180.334)">
                            <rect x="560.959" y="341.825" width="29.007" height="68.807" style="fill:rgb(175,234,220);"/>
                        </g>
                        <g transform="matrix(0.859375,0,0,0.580361,214.917,27.405)">
                            <rect x="560.959" y="341.825" width="29.007" height="68.807" style="fill:rgb(175,234,220);"/>
                        </g>
                        <g transform="matrix(0.859375,0,0,0.580361,214.917,129.358)">
                            <rect x="560.959" y="341.825" width="29.007" height="68.807" style="fill:rgb(175,234,220);"/>
                        </g>
                        <g transform="matrix(0.859375,0,0,0.580361,214.917,78.3815)">
                            <rect x="560.959" y="341.825" width="29.007" height="68.807" style="fill:rgb(175,234,220);"/>
                        </g>
                        <g transform="matrix(0.859375,0,0,0.580361,214.917,180.334)">
                            <rect x="560.959" y="341.825" width="29.007" height="68.807" style="fill:rgb(175,234,220);"/>
                        </g>
                    </g>
                    <g transform="matrix(1.0303,0,0,0.537272,-30.9525,37.713)">
                        <rect x="867.432" y="870.753" width="99" height="15" style="fill:rgb(116,209,234);"/>
                    </g>
                    <g transform="matrix(0.582935,0,0,1.52287,380.398,-843.341)">
                        <rect x="867.432" y="870.753" width="99" height="15" style="fill:rgb(116,209,234);"/>
                    </g>
                    <g transform="matrix(0.391289,0,0,0.567464,556.277,-19.9314)">
                        <rect x="867.432" y="870.753" width="99" height="15" style="fill:rgb(116,209,234);"/>
                    </g>
                </g>
                <g id="building1" serif:id="building">
                    <g id="Building2" serif:id="Building" transform="matrix(0.689352,0,0,0.689352,846.37,312.838)">
                        <g transform="matrix(0.996984,0,0,0.580361,237.771,30.9285)">
                            <rect x="320.475" y="296.489" width="181.419" height="540.397" style="fill:rgb(116,209,234);"/>
                        </g>
                        <g transform="matrix(0.859375,0,0,0.580361,91.4372,27.405)">
                            <rect x="560.959" y="341.825" width="29.007" height="68.807" style="fill:rgb(175,234,220);"/>
                        </g>
                        <g transform="matrix(0.859375,0,0,0.580361,91.4372,129.358)">
                            <rect x="560.959" y="341.825" width="29.007" height="68.807" style="fill:rgb(175,234,220);"/>
                        </g>
                        <g transform="matrix(0.859375,0,0,0.580361,91.4372,78.3815)">
                            <rect x="560.959" y="341.825" width="29.007" height="68.807" style="fill:rgb(175,234,220);"/>
                        </g>
                        <g transform="matrix(0.859375,0,0,0.580361,91.4372,180.334)">
                            <rect x="560.959" y="341.825" width="29.007" height="68.807" style="fill:rgb(175,234,220);"/>
                        </g>
                        <g transform="matrix(0.859375,0,0,0.580361,132.597,27.405)">
                            <rect x="560.959" y="341.825" width="29.007" height="68.807" style="fill:rgb(175,234,220);"/>
                        </g>
                        <g transform="matrix(0.859375,0,0,0.580361,132.597,129.358)">
                            <rect x="560.959" y="341.825" width="29.007" height="68.807" style="fill:rgb(175,234,220);"/>
                        </g>
                        <g transform="matrix(0.859375,0,0,0.580361,132.597,78.3815)">
                            <rect x="560.959" y="341.825" width="29.007" height="68.807" style="fill:rgb(175,234,220);"/>
                        </g>
                        <g transform="matrix(0.859375,0,0,0.580361,132.597,180.334)">
                            <rect x="560.959" y="341.825" width="29.007" height="68.807" style="fill:rgb(175,234,220);"/>
                        </g>
                        <g transform="matrix(0.859375,0,0,0.580361,173.757,27.405)">
                            <rect x="560.959" y="341.825" width="29.007" height="68.807" style="fill:rgb(175,234,220);"/>
                        </g>
                        <g transform="matrix(0.859375,0,0,0.580361,173.757,129.358)">
                            <rect x="560.959" y="341.825" width="29.007" height="68.807" style="fill:rgb(175,234,220);"/>
                        </g>
                        <g transform="matrix(0.859375,0,0,0.580361,173.757,78.3815)">
                            <rect x="560.959" y="341.825" width="29.007" height="68.807" style="fill:rgb(175,234,220);"/>
                        </g>
                        <g transform="matrix(0.859375,0,0,0.580361,173.757,180.334)">
                            <rect x="560.959" y="341.825" width="29.007" height="68.807" style="fill:rgb(175,234,220);"/>
                        </g>
                        <g transform="matrix(0.859375,0,0,0.580361,214.917,27.405)">
                            <rect x="560.959" y="341.825" width="29.007" height="68.807" style="fill:rgb(175,234,220);"/>
                        </g>
                        <g transform="matrix(0.859375,0,0,0.580361,214.917,129.358)">
                            <rect x="560.959" y="341.825" width="29.007" height="68.807" style="fill:rgb(175,234,220);"/>
                        </g>
                        <g transform="matrix(0.859375,0,0,0.580361,214.917,78.3815)">
                            <rect x="560.959" y="341.825" width="29.007" height="68.807" style="fill:rgb(175,234,220);"/>
                        </g>
                        <g transform="matrix(0.859375,0,0,0.580361,214.917,180.334)">
                            <rect x="560.959" y="341.825" width="29.007" height="68.807" style="fill:rgb(175,234,220);"/>
                        </g>
                    </g>
                    <g transform="matrix(-0.213526,0,0,0.250568,1298.96,459.276)">
                        <g id="Building3" serif:id="Building">
                            <rect x="320.475" y="296.489" width="181.419" height="540.397" style="fill:rgb(116,209,234);"/>
                        </g>
                    </g>
                    <g transform="matrix(0.262119,0,0,0.625681,928.525,37.1754)">
                        <path d="M1152.17,751.045L1152.17,793.362L1004.38,793.362L1152.17,751.045Z" style="fill:rgb(116,209,234);"/>
                    </g>
                </g>
                <g id="Building4" serif:id="Building" transform="matrix(0.842488,0,0,0.842488,-4.92164,288.648)">
                    <g transform="matrix(0.996984,0,0,0.580361,237.771,30.9285)">
                        <rect x="320.475" y="296.489" width="181.419" height="540.397" style="fill:rgb(116,209,234);"/>
                    </g>
                    <g transform="matrix(5.11628,0,0,0.111245,-2296.51,187.76)">
                        <rect x="560.959" y="341.825" width="29.007" height="68.807" style="fill:rgb(175,234,220);"/>
                    </g>
                    <g transform="matrix(5.11628,0,0,0.111245,-2296.51,208.895)">
                        <rect x="560.959" y="341.825" width="29.007" height="68.807" style="fill:rgb(175,234,220);"/>
                    </g>
                    <g transform="matrix(5.11628,0,0,0.111245,-2296.51,230.03)">
                        <rect x="560.959" y="341.825" width="29.007" height="68.807" style="fill:rgb(175,234,220);"/>
                    </g>
                    <g transform="matrix(5.11628,0,0,0.111245,-2296.51,251.165)">
                        <rect x="560.959" y="341.825" width="29.007" height="68.807" style="fill:rgb(175,234,220);"/>
                    </g>
                    <g transform="matrix(5.11628,0,0,0.111245,-2296.51,272.299)">
                        <rect x="560.959" y="341.825" width="29.007" height="68.807" style="fill:rgb(175,234,220);"/>
                    </g>
                    <g transform="matrix(5.11628,0,0,0.111245,-2296.51,293.434)">
                        <rect x="560.959" y="341.825" width="29.007" height="68.807" style="fill:rgb(175,234,220);"/>
                    </g>
                    <g transform="matrix(5.11628,0,0,0.111245,-2296.51,314.569)">
                        <rect x="560.959" y="341.825" width="29.007" height="68.807" style="fill:rgb(175,234,220);"/>
                    </g>
                    <g transform="matrix(5.11628,0,0,0.111245,-2296.51,335.704)">
                        <rect x="560.959" y="341.825" width="29.007" height="68.807" style="fill:rgb(175,234,220);"/>
                    </g>
                </g>
                <g id="Building5" serif:id="Building">
                    <g id="Building6" serif:id="Building" transform="matrix(0.842488,0,0,0.842488,532.871,288.648)">
                        <g transform="matrix(0.996984,0,0,0.580361,237.771,30.9285)">
                            <rect x="320.475" y="296.489" width="181.419" height="540.397" style="fill:rgb(116,209,234);"/>
                        </g>
                        <g transform="matrix(1.18696,0,0,0.615621,-632.496,-272.155)">
                            <rect x="1016.05" y="961.982" width="31.957" height="35.807" style="fill:rgb(175,234,220);"/>
                        </g>
                        <g transform="matrix(1.18696,0,0,0.615621,-632.496,-238.967)">
                            <rect x="1016.05" y="961.982" width="31.957" height="35.807" style="fill:rgb(175,234,220);"/>
                        </g>
                        <g transform="matrix(1.18696,0,0,0.615621,-632.496,-205.78)">
                            <rect x="1016.05" y="961.982" width="31.957" height="35.807" style="fill:rgb(175,234,220);"/>
                        </g>
                        <g transform="matrix(1.18696,0,0,0.615621,-632.496,-305.342)">
                            <rect x="1016.05" y="961.982" width="31.957" height="35.807" style="fill:rgb(175,234,220);"/>
                        </g>
                        <g transform="matrix(1.18696,0,0,0.615621,-632.496,-338.53)">
                            <rect x="1016.05" y="961.982" width="31.957" height="35.807" style="fill:rgb(175,234,220);"/>
                        </g>
                        <g transform="matrix(1.18696,0,0,0.615621,-632.496,-371.717)">
                            <rect x="1016.05" y="961.982" width="31.957" height="35.807" style="fill:rgb(175,234,220);"/>
                        </g>
                        <g transform="matrix(1.18696,0,0,0.615621,-522.02,-272.155)">
                            <rect x="1016.05" y="961.982" width="31.957" height="35.807" style="fill:rgb(175,234,220);"/>
                        </g>
                        <g transform="matrix(1.18696,0,0,0.615621,-522.02,-238.967)">
                            <rect x="1016.05" y="961.982" width="31.957" height="35.807" style="fill:rgb(175,234,220);"/>
                        </g>
                        <g transform="matrix(1.18696,0,0,0.615621,-522.02,-205.78)">
                            <rect x="1016.05" y="961.982" width="31.957" height="35.807" style="fill:rgb(175,234,220);"/>
                        </g>
                        <g transform="matrix(1.18696,0,0,0.615621,-522.02,-305.342)">
                            <rect x="1016.05" y="961.982" width="31.957" height="35.807" style="fill:rgb(175,234,220);"/>
                        </g>
                        <g transform="matrix(1.18696,0,0,0.615621,-522.02,-338.53)">
                            <rect x="1016.05" y="961.982" width="31.957" height="35.807" style="fill:rgb(175,234,220);"/>
                        </g>
                        <g transform="matrix(1.18696,0,0,0.615621,-522.02,-371.717)">
                            <rect x="1016.05" y="961.982" width="31.957" height="35.807" style="fill:rgb(175,234,220);"/>
                        </g>
                        <g transform="matrix(1.18696,0,0,0.615621,-577.258,-272.155)">
                            <rect x="1016.05" y="961.982" width="31.957" height="35.807" style="fill:rgb(175,234,220);"/>
                        </g>
                        <g transform="matrix(1.18696,0,0,0.615621,-577.258,-238.967)">
                            <rect x="1016.05" y="961.982" width="31.957" height="35.807" style="fill:rgb(175,234,220);"/>
                        </g>
                        <g transform="matrix(1.18696,0,0,0.615621,-577.258,-205.78)">
                            <rect x="1016.05" y="961.982" width="31.957" height="35.807" style="fill:rgb(175,234,220);"/>
                        </g>
                        <g transform="matrix(1.18696,0,0,0.615621,-577.258,-305.342)">
                            <rect x="1016.05" y="961.982" width="31.957" height="35.807" style="fill:rgb(175,234,220);"/>
                        </g>
                        <g transform="matrix(1.18696,0,0,0.615621,-577.258,-338.53)">
                            <rect x="1016.05" y="961.982" width="31.957" height="35.807" style="fill:rgb(175,234,220);"/>
                        </g>
                        <g transform="matrix(1.18696,0,0,0.615621,-577.258,-371.717)">
                            <rect x="1016.05" y="961.982" width="31.957" height="35.807" style="fill:rgb(175,234,220);"/>
                        </g>
                    </g>
                    <g transform="matrix(-1.0311,0,0,0.845093,2190.37,-210.792)">
                        <path d="M1152.17,751.045L1152.17,793.362L1004.38,793.362L1152.17,751.045Z" style="fill:rgb(116,209,234);"/>
                    </g>
                </g>
                <g id="Building7" serif:id="Building">
                    <g id="Building8" serif:id="Building" transform="matrix(-0.842488,0,0,0.842488,2175.86,259.429)">
                        <g transform="matrix(0.996984,0,0,0.580361,237.771,30.9285)">
                            <rect x="320.475" y="296.489" width="181.419" height="540.397" style="fill:rgb(116,209,234);"/>
                        </g>
                        <g transform="matrix(1.18696,0,0,0.615621,-632.496,-272.155)">
                            <rect x="1016.05" y="961.982" width="31.957" height="35.807" style="fill:rgb(175,234,220);"/>
                        </g>
                        <g transform="matrix(1.18696,0,0,0.615621,-632.496,-238.967)">
                            <rect x="1016.05" y="961.982" width="31.957" height="35.807" style="fill:rgb(175,234,220);"/>
                        </g>
                        <g transform="matrix(1.18696,0,0,0.615621,-632.496,-205.78)">
                            <rect x="1016.05" y="961.982" width="31.957" height="35.807" style="fill:rgb(175,234,220);"/>
                        </g>
                        <g transform="matrix(1.18696,0,0,0.615621,-632.496,-305.342)">
                            <rect x="1016.05" y="961.982" width="31.957" height="35.807" style="fill:rgb(175,234,220);"/>
                        </g>
                        <g transform="matrix(1.18696,0,0,0.615621,-632.496,-338.53)">
                            <rect x="1016.05" y="961.982" width="31.957" height="35.807" style="fill:rgb(175,234,220);"/>
                        </g>
                        <g transform="matrix(1.18696,0,0,0.615621,-632.496,-371.717)">
                            <rect x="1016.05" y="961.982" width="31.957" height="35.807" style="fill:rgb(175,234,220);"/>
                        </g>
                        <g transform="matrix(1.18696,0,0,0.615621,-522.02,-272.155)">
                            <rect x="1016.05" y="961.982" width="31.957" height="35.807" style="fill:rgb(175,234,220);"/>
                        </g>
                        <g transform="matrix(1.18696,0,0,0.615621,-522.02,-238.967)">
                            <rect x="1016.05" y="961.982" width="31.957" height="35.807" style="fill:rgb(175,234,220);"/>
                        </g>
                        <g transform="matrix(1.18696,0,0,0.615621,-522.02,-205.78)">
                            <rect x="1016.05" y="961.982" width="31.957" height="35.807" style="fill:rgb(175,234,220);"/>
                        </g>
                        <g transform="matrix(1.18696,0,0,0.615621,-522.02,-305.342)">
                            <rect x="1016.05" y="961.982" width="31.957" height="35.807" style="fill:rgb(175,234,220);"/>
                        </g>
                        <g transform="matrix(1.18696,0,0,0.615621,-522.02,-338.53)">
                            <rect x="1016.05" y="961.982" width="31.957" height="35.807" style="fill:rgb(175,234,220);"/>
                        </g>
                        <g transform="matrix(1.18696,0,0,0.615621,-522.02,-371.717)">
                            <rect x="1016.05" y="961.982" width="31.957" height="35.807" style="fill:rgb(175,234,220);"/>
                        </g>
                        <g transform="matrix(1.18696,0,0,0.615621,-577.258,-272.155)">
                            <rect x="1016.05" y="961.982" width="31.957" height="35.807" style="fill:rgb(175,234,220);"/>
                        </g>
                        <g transform="matrix(1.18696,0,0,0.615621,-577.258,-238.967)">
                            <rect x="1016.05" y="961.982" width="31.957" height="35.807" style="fill:rgb(175,234,220);"/>
                        </g>
                        <g transform="matrix(1.18696,0,0,0.615621,-577.258,-205.78)">
                            <rect x="1016.05" y="961.982" width="31.957" height="35.807" style="fill:rgb(175,234,220);"/>
                        </g>
                        <g transform="matrix(1.18696,0,0,0.615621,-577.258,-305.342)">
                            <rect x="1016.05" y="961.982" width="31.957" height="35.807" style="fill:rgb(175,234,220);"/>
                        </g>
                        <g transform="matrix(1.18696,0,0,0.615621,-577.258,-338.53)">
                            <rect x="1016.05" y="961.982" width="31.957" height="35.807" style="fill:rgb(175,234,220);"/>
                        </g>
                        <g transform="matrix(1.18696,0,0,0.615621,-577.258,-371.717)">
                            <rect x="1016.05" y="961.982" width="31.957" height="35.807" style="fill:rgb(175,234,220);"/>
                        </g>
                    </g>
                    <g transform="matrix(1.0311,0,0,1.107,518.36,-447.798)">
                        <path d="M1152.17,751.045L1152.17,793.362L1004.38,793.362L1152.17,751.045Z" style="fill:rgb(116,209,234);"/>
                    </g>
                </g>
                <g id="building2" serif:id="building">
                    <g id="Building9" serif:id="Building" transform="matrix(1.03652,0,0,0.304733,60.119,542.862)">
                        <g transform="matrix(0.968054,0,0,0.430588,252.29,75.3344)">
                            <rect x="320.475" y="296.489" width="181.419" height="540.397" style="fill:rgb(116,209,234);"/>
                        </g>
                        <g transform="matrix(0.399118,0,0,0.332144,486.453,126.728)">
                            <rect x="560.959" y="341.825" width="29.007" height="68.807" style="fill:rgb(175,234,220);"/>
                        </g>
                        <g transform="matrix(0.399118,0,0,0.332144,453.419,126.728)">
                            <rect x="560.959" y="341.825" width="29.007" height="68.807" style="fill:rgb(175,234,220);"/>
                        </g>
                        <g transform="matrix(0.399118,0,0,0.332144,420.386,126.728)">
                            <rect x="560.959" y="341.825" width="29.007" height="68.807" style="fill:rgb(175,234,220);"/>
                        </g>
                        <g transform="matrix(0.399118,0,0,0.332144,387.352,126.728)">
                            <rect x="560.959" y="341.825" width="29.007" height="68.807" style="fill:rgb(175,234,220);"/>
                        </g>
                        <g transform="matrix(0.399118,0,0,0.332144,354.319,126.728)">
                            <rect x="560.959" y="341.825" width="29.007" height="68.807" style="fill:rgb(175,234,220);"/>
                        </g>
                        <g transform="matrix(0.399118,0,0,0.332144,486.453,166.951)">
                            <rect x="560.959" y="341.825" width="29.007" height="68.807" style="fill:rgb(175,234,220);"/>
                        </g>
                        <g transform="matrix(0.399118,0,0,0.332144,486.453,207.174)">
                            <rect x="560.959" y="341.825" width="29.007" height="68.807" style="fill:rgb(175,234,220);"/>
                        </g>
                        <g transform="matrix(0.399118,0,0,0.332144,486.453,247.397)">
                            <rect x="560.959" y="341.825" width="29.007" height="68.807" style="fill:rgb(175,234,220);"/>
                        </g>
                        <g transform="matrix(0.399118,0,0,0.332144,453.419,166.951)">
                            <rect x="560.959" y="341.825" width="29.007" height="68.807" style="fill:rgb(175,234,220);"/>
                        </g>
                        <g transform="matrix(0.399118,0,0,0.332144,453.419,207.174)">
                            <rect x="560.959" y="341.825" width="29.007" height="68.807" style="fill:rgb(175,234,220);"/>
                        </g>
                        <g transform="matrix(0.399118,0,0,0.332144,453.419,247.397)">
                            <rect x="560.959" y="341.825" width="29.007" height="68.807" style="fill:rgb(175,234,220);"/>
                        </g>
                        <g transform="matrix(0.399118,0,0,0.332144,420.386,166.951)">
                            <rect x="560.959" y="341.825" width="29.007" height="68.807" style="fill:rgb(175,234,220);"/>
                        </g>
                        <g transform="matrix(0.399118,0,0,0.332144,420.386,207.174)">
                            <rect x="560.959" y="341.825" width="29.007" height="68.807" style="fill:rgb(175,234,220);"/>
                        </g>
                        <g transform="matrix(0.399118,0,0,0.332144,420.386,247.397)">
                            <rect x="560.959" y="341.825" width="29.007" height="68.807" style="fill:rgb(175,234,220);"/>
                        </g>
                        <g transform="matrix(0.399118,0,0,0.332144,387.352,166.951)">
                            <rect x="560.959" y="341.825" width="29.007" height="68.807" style="fill:rgb(175,234,220);"/>
                        </g>
                        <g transform="matrix(0.399118,0,0,0.332144,387.352,207.174)">
                            <rect x="560.959" y="341.825" width="29.007" height="68.807" style="fill:rgb(175,234,220);"/>
                        </g>
                        <g transform="matrix(0.399118,0,0,0.332144,387.352,247.397)">
                            <rect x="560.959" y="341.825" width="29.007" height="68.807" style="fill:rgb(175,234,220);"/>
                        </g>
                        <g transform="matrix(0.399118,0,0,0.332144,354.319,166.951)">
                            <rect x="560.959" y="341.825" width="29.007" height="68.807" style="fill:rgb(175,234,220);"/>
                        </g>
                        <g transform="matrix(0.399118,0,0,0.332144,354.319,207.174)">
                            <rect x="560.959" y="341.825" width="29.007" height="68.807" style="fill:rgb(175,234,220);"/>
                        </g>
                        <g transform="matrix(0.399118,0,0,0.332144,354.319,247.397)">
                            <rect x="560.959" y="341.825" width="29.007" height="68.807" style="fill:rgb(175,234,220);"/>
                        </g>
                    </g>
                    <g transform="matrix(1.00329,0,0,0.580361,-18.8452,-3.98997)">
                        <path d="M750.583,1009.92L841.303,1049.28L659.863,1049.28L750.583,1009.92Z" style="fill:rgb(116,209,234);"/>
                    </g>
                </g>
                <g id="building3" serif:id="building" transform="matrix(0.709952,0,0,0.304733,992.887,485.033)">
                    <g transform="matrix(0.968054,0,0,0.430588,252.29,75.3344)">
                        <rect x="320.475" y="296.489" width="181.419" height="540.397" style="fill:rgb(116,209,234);"/>
                    </g>
                    <g transform="matrix(0.728384,0,0,0.41518,292.197,184.857)">
                        <rect x="560.959" y="341.825" width="29.007" height="68.807" style="fill:rgb(175,234,220);"/>
                    </g>
                    <g transform="matrix(0.728384,0,0,0.41518,292.197,230.795)">
                        <rect x="560.959" y="341.825" width="29.007" height="68.807" style="fill:rgb(175,234,220);"/>
                    </g>
                    <g transform="matrix(0.728384,0,0,0.41518,292.197,92.9817)">
                        <rect x="560.959" y="341.825" width="29.007" height="68.807" style="fill:rgb(175,234,220);"/>
                    </g>
                    <g transform="matrix(0.728384,0,0,0.41518,202.647,184.857)">
                        <rect x="560.959" y="341.825" width="29.007" height="68.807" style="fill:rgb(175,234,220);"/>
                    </g>
                    <g transform="matrix(0.728384,0,0,0.41518,202.647,230.795)">
                        <rect x="560.959" y="341.825" width="29.007" height="68.807" style="fill:rgb(175,234,220);"/>
                    </g>
                    <g transform="matrix(0.728384,0,0,0.41518,202.647,92.9817)">
                        <rect x="560.959" y="341.825" width="29.007" height="68.807" style="fill:rgb(175,234,220);"/>
                    </g>
                    <g transform="matrix(0.728384,0,0,0.41518,292.197,138.92)">
                        <rect x="560.959" y="341.825" width="29.007" height="68.807" style="fill:rgb(175,234,220);"/>
                    </g>
                    <g transform="matrix(0.728384,0,0,0.41518,169.614,138.92)">
                        <rect x="560.959" y="341.825" width="29.007" height="68.807" style="fill:rgb(175,234,220);"/>
                    </g>
                    <g transform="matrix(0.728384,0,0,0.41518,202.647,138.92)">
                        <rect x="560.959" y="341.825" width="29.007" height="68.807" style="fill:rgb(175,234,220);"/>
                    </g>
                    <g transform="matrix(0.728384,0,0,0.41518,259.163,138.92)">
                        <rect x="560.959" y="341.825" width="29.007" height="68.807" style="fill:rgb(175,234,220);"/>
                    </g>
                    <g transform="matrix(0.728384,0,0,0.41518,259.163,184.857)">
                        <rect x="560.959" y="341.825" width="29.007" height="68.807" style="fill:rgb(175,234,220);"/>
                    </g>
                    <g transform="matrix(0.728384,0,0,0.41518,259.163,230.795)">
                        <rect x="560.959" y="341.825" width="29.007" height="68.807" style="fill:rgb(175,234,220);"/>
                    </g>
                    <g transform="matrix(0.728384,0,0,0.41518,259.163,92.9817)">
                        <rect x="560.959" y="341.825" width="29.007" height="68.807" style="fill:rgb(175,234,220);"/>
                    </g>
                    <g transform="matrix(0.728384,0,0,0.41518,169.614,184.857)">
                        <rect x="560.959" y="341.825" width="29.007" height="68.807" style="fill:rgb(175,234,220);"/>
                    </g>
                    <g transform="matrix(0.728384,0,0,0.41518,169.614,230.795)">
                        <rect x="560.959" y="341.825" width="29.007" height="68.807" style="fill:rgb(175,234,220);"/>
                    </g>
                    <g transform="matrix(0.728384,0,0,0.41518,169.614,92.9817)">
                        <rect x="560.959" y="341.825" width="29.007" height="68.807" style="fill:rgb(175,234,220);"/>
                    </g>
                    <g transform="matrix(0.199559,0,0,2.41808,535.224,-591.658)">
                        <rect x="560.959" y="341.825" width="29.007" height="68.807" style="fill:rgb(175,234,220);"/>
                    </g>
                    <g transform="matrix(0.967942,0,0,1.90449,-76.1818,-1795.34)">
                        <path d="M750.583,1009.92L841.303,1049.28L659.863,1049.28L750.583,1009.92Z" style="fill:rgb(116,209,234);"/>
                    </g>
                </g>
            </g>
            <g id="Ground" transform="matrix(0.698476,0,0,0.698476,173.515,93.4824)">
                <g transform="matrix(1.18224,0,0,0.686127,107.013,365.653)">
                    <circle cx="369.535" cy="862.568" r="271.132" style="fill:rgb(141,233,113);"/>
                </g>
                <g transform="matrix(1,0,0,0.580361,-134.941,514.953)">
                    <circle cx="369.535" cy="862.568" r="271.132" style="fill:rgb(169,238,138);"/>
                </g>
                <g transform="matrix(1,0,0,0.580361,55.3144,813.89)">
                    <ellipse cx="792.769" cy="435.458" rx="427.814" ry="417.152" style="fill:rgb(68,214,44);"/>
                </g>
                <g transform="matrix(1,0,0,0.580361,1083.51,727.025)">
                    <ellipse cx="792.769" cy="435.458" rx="427.814" ry="417.152" style="fill:rgb(141,233,113);"/>
                </g>
                <g transform="matrix(1.28139,0,0,0.743668,396.788,778.327)">
                    <ellipse cx="792.769" cy="435.458" rx="427.814" ry="417.152" style="fill:rgb(169,238,138);"/>
                </g>
            </g>
            <g transform="matrix(1,0,0,0.580361,-463.22,-10.8758)">
                <g id="Sun">
                    <circle cx="1116.12" cy="605.998" r="143.167" style="fill:rgb(255,230,113);"/>
                </g>
            </g>
            <g id="trees">
                <g id="tree2" transform="matrix(1,0,0,1,-135.364,-18.8519)">
                    <g transform="matrix(0.0460809,0,0,0.0267435,516.459,648.93)">
                        <ellipse cx="792.769" cy="435.458" rx="427.814" ry="417.152" style="fill:rgb(68,214,44);"/>
                    </g>
                    <g transform="matrix(0.0542072,0,0,0.0314597,486.976,644.909)">
                        <ellipse cx="792.769" cy="435.458" rx="427.814" ry="417.152" style="fill:rgb(68,214,44);"/>
                    </g>
                    <g transform="matrix(0.0362784,0,0,0.0210546,508.859,636.268)">
                        <ellipse cx="792.769" cy="435.458" rx="427.814" ry="417.152" style="fill:rgb(68,214,44);"/>
                    </g>
                    <g transform="matrix(0.0261116,0,0,0.0151541,540.833,641.299)">
                        <ellipse cx="792.769" cy="435.458" rx="427.814" ry="417.152" style="fill:rgb(68,214,44);"/>
                    </g>
                    <g transform="matrix(0.574568,0,0,0.112636,426.434,566.898)">
                        <path d="M199.883,911.018L199.883,1097.94" style="fill:none;stroke:rgb(68,214,44);stroke-width:19.43px;"/>
                    </g>
                </g>
                <g id="tree21" serif:id="tree2" transform="matrix(1.55231,0,0,1.55231,-280.767,-379.001)">
                    <g transform="matrix(0.0460809,0,0,0.0267435,516.459,648.93)">
                        <ellipse cx="792.769" cy="435.458" rx="427.814" ry="417.152" style="fill:rgb(68,214,44);"/>
                    </g>
                    <g transform="matrix(0.0542072,0,0,0.0314597,486.976,644.909)">
                        <ellipse cx="792.769" cy="435.458" rx="427.814" ry="417.152" style="fill:rgb(68,214,44);"/>
                    </g>
                    <g transform="matrix(0.0362784,0,0,0.0210546,508.859,636.268)">
                        <ellipse cx="792.769" cy="435.458" rx="427.814" ry="417.152" style="fill:rgb(68,214,44);"/>
                    </g>
                    <g transform="matrix(0.0261116,0,0,0.0151541,540.833,641.299)">
                        <ellipse cx="792.769" cy="435.458" rx="427.814" ry="417.152" style="fill:rgb(68,214,44);"/>
                    </g>
                    <g transform="matrix(0.574568,0,0,0.112636,426.434,566.898)">
                        <path d="M199.883,911.018L199.883,1097.94" style="fill:none;stroke:rgb(68,214,44);stroke-width:12.52px;"/>
                    </g>
                </g>
                <g id="tree22" serif:id="tree2" transform="matrix(0.875127,0,0,0.875127,966.678,21.8844)">
                    <g transform="matrix(0.0460809,0,0,0.0267435,516.459,648.93)">
                        <ellipse cx="792.769" cy="435.458" rx="427.814" ry="417.152" style="fill:rgb(68,214,44);"/>
                    </g>
                    <g transform="matrix(0.0542072,0,0,0.0314597,486.976,644.909)">
                        <ellipse cx="792.769" cy="435.458" rx="427.814" ry="417.152" style="fill:rgb(68,214,44);"/>
                    </g>
                    <g transform="matrix(0.0362784,0,0,0.0210546,508.859,636.268)">
                        <ellipse cx="792.769" cy="435.458" rx="427.814" ry="417.152" style="fill:rgb(68,214,44);"/>
                    </g>
                    <g transform="matrix(0.0261116,0,0,0.0151541,540.833,641.299)">
                        <ellipse cx="792.769" cy="435.458" rx="427.814" ry="417.152" style="fill:rgb(68,214,44);"/>
                    </g>
                    <g transform="matrix(0.574568,0,0,0.112636,426.434,566.898)">
                        <path d="M199.883,911.018L199.883,1097.94" style="fill:none;stroke:rgb(68,214,44);stroke-width:22.21px;"/>
                    </g>
                </g>
                <g id="tree23" serif:id="tree2" transform="matrix(1.32032,0,0,1.32032,923.951,-257.062)">
                    <g transform="matrix(0.0460809,0,0,0.0267435,516.459,648.93)">
                        <ellipse cx="792.769" cy="435.458" rx="427.814" ry="417.152" style="fill:rgb(68,214,44);"/>
                    </g>
                    <g transform="matrix(0.0542072,0,0,0.0314597,486.976,644.909)">
                        <ellipse cx="792.769" cy="435.458" rx="427.814" ry="417.152" style="fill:rgb(68,214,44);"/>
                    </g>
                    <g transform="matrix(0.0362784,0,0,0.0210546,508.859,636.268)">
                        <ellipse cx="792.769" cy="435.458" rx="427.814" ry="417.152" style="fill:rgb(68,214,44);"/>
                    </g>
                    <g transform="matrix(0.0261116,0,0,0.0151541,540.833,641.299)">
                        <ellipse cx="792.769" cy="435.458" rx="427.814" ry="417.152" style="fill:rgb(68,214,44);"/>
                    </g>
                    <g transform="matrix(0.574568,0,0,0.112636,426.434,566.898)">
                        <path d="M199.883,911.018L199.883,1097.94" style="fill:none;stroke:rgb(68,214,44);stroke-width:14.72px;"/>
                    </g>
                </g>
                <g id="Tree" transform="matrix(1,0,0,1,-142.14,-82.0348)">
                    <g transform="matrix(0.672839,0,0,0.390489,27.8104,397.47)">
                        <path d="M505.012,774.326C505.012,774.326 462.126,891.501 462.126,941.719C462.126,965.389 481.343,984.605 505.012,984.605C528.681,984.605 547.898,965.389 547.898,941.719C547.898,891.501 505.012,774.326 505.012,774.326Z" style="fill:rgb(68,214,44);"/>
                    </g>
                    <g transform="matrix(0.672839,0,0,0.227722,233.593,574.489)">
                        <path d="M199.883,911.018L199.883,1097.94" style="fill:none;stroke:rgb(68,214,44);stroke-width:22.7px;"/>
                    </g>
                </g>
                <g id="Tree1" serif:id="Tree" transform="matrix(0.67124,0,0,0.67124,36.7377,156.46)">
                    <g transform="matrix(0.672839,0,0,0.390489,27.8104,397.47)">
                        <path d="M505.012,774.326C505.012,774.326 462.126,891.501 462.126,941.719C462.126,965.389 481.343,984.605 505.012,984.605C528.681,984.605 547.898,965.389 547.898,941.719C547.898,891.501 505.012,774.326 505.012,774.326Z" style="fill:rgb(68,214,44);"/>
                    </g>
                    <g transform="matrix(0.672839,0,0,0.227722,233.593,574.489)">
                        <path d="M199.883,911.018L199.883,1097.94" style="fill:none;stroke:rgb(68,214,44);stroke-width:33.81px;"/>
                    </g>
                </g>
                <g id="Tree2" serif:id="Tree" transform="matrix(1.02838,0,0,1.02838,832.624,-148.677)">
                    <g transform="matrix(0.672839,0,0,0.390489,27.8104,397.47)">
                        <path d="M505.012,774.326C505.012,774.326 462.126,891.501 462.126,941.719C462.126,965.389 481.343,984.605 505.012,984.605C528.681,984.605 547.898,965.389 547.898,941.719C547.898,891.501 505.012,774.326 505.012,774.326Z" style="fill:rgb(68,214,44);"/>
                    </g>
                    <g transform="matrix(0.672839,0,0,0.227722,233.593,574.489)">
                        <path d="M199.883,911.018L199.883,1097.94" style="fill:none;stroke:rgb(68,214,44);stroke-width:22.07px;"/>
                    </g>
                </g>
                <g id="Tree3" serif:id="Tree" transform="matrix(0.738742,0,0,0.738742,1017.32,66.5272)">
                    <g transform="matrix(0.672839,0,0,0.390489,27.8104,397.47)">
                        <path d="M505.012,774.326C505.012,774.326 462.126,891.501 462.126,941.719C462.126,965.389 481.343,984.605 505.012,984.605C528.681,984.605 547.898,965.389 547.898,941.719C547.898,891.501 505.012,774.326 505.012,774.326Z" style="fill:rgb(68,214,44);"/>
                    </g>
                    <g transform="matrix(0.672839,0,0,0.227722,233.593,574.489)">
                        <path d="M199.883,911.018L199.883,1097.94" style="fill:none;stroke:rgb(68,214,44);stroke-width:30.72px;"/>
                    </g>
                </g>
                <g id="Tree4" serif:id="Tree" transform="matrix(0.738742,0,0,0.738742,762.935,66.5272)">
                    <g transform="matrix(0.672839,0,0,0.390489,27.8104,397.47)">
                        <path d="M505.012,774.326C505.012,774.326 462.126,891.501 462.126,941.719C462.126,965.389 481.343,984.605 505.012,984.605C528.681,984.605 547.898,965.389 547.898,941.719C547.898,891.501 505.012,774.326 505.012,774.326Z" style="fill:rgb(68,214,44);"/>
                    </g>
                    <g transform="matrix(0.672839,0,0,0.227722,233.593,574.489)">
                        <path d="M199.883,911.018L199.883,1097.94" style="fill:none;stroke:rgb(68,214,44);stroke-width:30.72px;"/>
                    </g>
                </g>
            </g>
            <g id="clouds">
                <g transform="matrix(0.724537,0,0,0.420493,117.771,132.009)">
                    <circle cx="192.755" cy="605.417" r="57.509" style="fill:rgb(159,221,237);"/>
                </g>
                <g transform="matrix(-0.979613,0,0,0.580361,1266.41,3.31048)">
                    <circle cx="192.755" cy="605.417" r="57.509" style="fill:rgb(159,221,237);"/>
                </g>
                <g transform="matrix(-0.599409,0,0,0.355113,1593.57,163.142)">
                    <circle cx="192.755" cy="605.417" r="57.509" style="fill:rgb(159,221,237);"/>
                </g>
                <g transform="matrix(0.999729,0,0,0.580204,125.01,26.133)">
                    <circle cx="192.755" cy="605.417" r="57.509" style="fill:rgb(159,221,237);"/>
                </g>
                <g transform="matrix(-1.35169,0,0,0.800792,1256.63,-142.819)">
                    <circle cx="192.755" cy="605.417" r="57.509" style="fill:rgb(159,221,237);"/>
                </g>
                <g transform="matrix(-0.827075,0,0,0.489992,1587.58,73.7275)">
                    <circle cx="192.755" cy="605.417" r="57.509" style="fill:rgb(159,221,237);"/>
                </g>
                <g transform="matrix(0.642537,0,0,0.372903,250.3,158.084)">
                    <circle cx="192.755" cy="605.417" r="57.509" style="fill:rgb(159,221,237);"/>
                </g>
                <g transform="matrix(-0.868744,0,0,0.514678,1087.23,39.2987)">
                    <circle cx="192.755" cy="605.417" r="57.509" style="fill:rgb(159,221,237);"/>
                </g>
                <g transform="matrix(-0.53157,0,0,0.314923,1483.93,185.162)">
                    <circle cx="192.755" cy="605.417" r="57.509" style="fill:rgb(159,221,237);"/>
                </g>
                <g transform="matrix(0.34221,0,0,0.198605,341.897,268.728)">
                    <circle cx="192.755" cy="605.417" r="57.509" style="fill:rgb(159,221,237);"/>
                </g>
                <g transform="matrix(-0.462686,0,0,0.274113,963.385,192.009)">
                    <circle cx="192.755" cy="605.417" r="57.509" style="fill:rgb(159,221,237);"/>
                </g>
                <g transform="matrix(-0.28311,0,0,0.167725,1408.15,278.603)">
                    <circle cx="192.755" cy="605.417" r="57.509" style="fill:rgb(159,221,237);"/>
                </g>
            </g>
        </g>
    </g>
</svg>
